<?xml version="1.0" standalone="no"?>
<!DOCTYPE svg PUBLIC "-//W3C//DTD SVG 20010904//EN"
 "http://www.w3.org/TR/2001/REC-SVG-20010904/DTD/svg10.dtd">
<svg version="1.0" xmlns="http://www.w3.org/2000/svg"
 width="400.000000pt" height="400.000000pt" viewBox="0 0 400.000000 400.000000"
 preserveAspectRatio="xMidYMid meet">
<metadata>
Created by potrace 1.14, written by Peter Selinger 2001-2017
</metadata>
<g transform="translate(0.000000,400.000000) scale(0.100000,-0.100000)"
fill="#000000" stroke="none">
<path d="M1856 3172 c-3 -5 -23 -13 -43 -17 -21 -4 -51 -12 -68 -19 -16 -7
-48 -19 -70 -26 -22 -7 -52 -25 -66 -39 -15 -14 -33 -31 -40 -37 -39 -32 -95
-119 -103 -159 -9 -41 -14 -83 -22 -184 -9 -102 -9 -105 1 -199 7 -65 6 -72
-9 -66 -12 5 -15 2 -10 -9 3 -9 12 -18 20 -21 8 -3 14 -14 14 -25 0 -11 4 -22
9 -26 6 -3 11 19 13 52 3 57 4 58 34 61 24 2 34 11 47 38 10 19 17 41 17 49 0
8 9 13 20 12 12 -1 20 -8 20 -19 0 -23 20 -34 31 -17 5 8 9 10 9 6 0 -4 16 8
37 28 40 38 54 42 76 20 12 -11 35 -13 113 -9 127 6 153 5 173 -5 9 -5 34 -6
56 -2 25 5 51 3 69 -4 l28 -12 -23 -8 -24 -8 28 -4 c15 -2 27 -9 27 -15 0 -5
-7 -8 -15 -5 -8 4 -17 2 -19 -2 -9 -15 5 -19 33 -11 25 7 29 5 40 -25 6 -19 9
-45 5 -60 -5 -20 -2 -30 15 -41 52 -37 4 -68 -119 -78 -41 -4 -95 -12 -119
-18 l-44 -11 7 -66 c3 -36 6 -78 6 -93 0 -16 5 -28 10 -28 6 0 10 12 10 28 l1
27 14 -25 14 -25 1 34 c0 22 4 32 13 28 123 -50 124 -50 118 -15 0 4 16 16 37
27 44 22 116 79 118 92 1 5 2 20 3 34 1 28 15 32 37 11 16 -17 19 -36 4 -36
-5 0 -10 -5 -10 -11 0 -5 4 -8 8 -5 5 3 7 -8 4 -23 -3 -22 1 -29 17 -34 15 -4
19 -10 14 -22 -6 -16 -4 -16 21 0 45 30 63 89 31 101 -9 4 -15 19 -15 41 0 19
4 32 10 28 11 -7 40 84 32 103 -3 9 -13 6 -32 -13 l-28 -27 3 44 c2 24 7 84
11 133 12 162 -21 307 -91 399 -61 80 -250 196 -330 203 -27 2 -78 7 -111 10
-36 3 -64 1 -68 -5z m-199 -140 c-10 -10 -14 -21 -11 -24 3 -4 -8 -9 -25 -13
-17 -4 -36 -15 -41 -26 -14 -25 -30 -25 -23 1 6 23 28 43 51 46 8 2 19 10 24
18 5 9 16 16 25 16 15 0 15 -2 0 -18z m-97 -96 c0 -3 -4 -8 -10 -11 -5 -3 -10
-1 -10 4 0 6 5 11 10 11 6 0 10 -2 10 -4z m575 -744 c-8 -8 -25 10 -25 26 0
13 2 13 14 -4 8 -10 13 -21 11 -22z"/>
<path d="M1373 2391 c8 -21 15 -27 21 -21 12 12 -2 41 -22 48 -8 2 -8 -5 1
-27z"/>
<path d="M1417 2334 c-4 -4 -7 -20 -7 -35 0 -15 -7 -29 -15 -33 -23 -9 -19
-69 6 -92 29 -26 69 -89 70 -111 0 -16 2 -15 8 2 11 25 3 114 -15 180 -7 28
-12 59 -11 70 2 19 -23 32 -36 19z"/>
<path d="M1592 2292 c-21 -14 2 -57 45 -83 21 -12 40 -26 43 -30 7 -10 59 -30
93 -36 18 -3 35 2 46 11 10 9 21 13 24 9 4 -3 7 -1 7 6 0 6 6 11 13 10 27 -3
36 2 51 33 9 17 16 32 16 33 0 1 -42 8 -92 14 -109 14 -185 27 -213 35 -11 4
-26 2 -33 -2z m144 -100 c-9 -9 -37 8 -31 18 5 8 11 7 21 -1 8 -6 12 -14 10
-17z"/>
<path d="M2330 2103 c-33 -12 -67 -64 -89 -132 -23 -73 -32 -82 -57 -56 -17
16 -39 21 -30 6 12 -19 -6 -39 -32 -37 -33 4 -36 18 -19 77 13 42 13 48 -5 72
-21 29 -48 36 -48 14 0 -8 9 -22 20 -32 11 -10 20 -24 20 -31 0 -13 -116 -74
-139 -74 -7 0 -33 11 -58 25 -51 27 -66 26 -39 -4 16 -17 15 -20 -3 -42 -10
-13 -25 -24 -33 -25 -7 0 -28 -2 -45 -2 -27 -2 -34 -7 -39 -29 -16 -74 1 -84
-166 95 -38 39 -46 40 -42 5 l4 -28 -9 25 c-6 14 -15 45 -22 70 -6 25 -14 40
-16 33 -2 -6 2 -36 10 -66 16 -62 14 -68 -30 -91 -40 -20 -53 -21 -27 -1 37
29 -35 5 -151 -50 -60 -29 -121 -56 -135 -60 -43 -12 -210 -95 -210 -104 0 -8
-114 -86 -144 -97 -10 -4 -47 -66 -83 -138 l-65 -131 5 -90 c3 -57 13 -109 26
-143 12 -29 26 -96 32 -148 6 -53 15 -107 20 -121 5 -13 9 -44 9 -69 0 -44 22
-104 38 -104 14 0 72 -56 65 -63 -3 -4 -2 -7 4 -7 16 0 24 57 32 216 5 101 11
147 21 159 14 17 32 18 231 12 207 -7 216 -6 237 13 12 12 22 32 22 46 0 29
24 42 45 24 7 -6 15 -27 17 -46 3 -39 20 -47 28 -13 13 54 76 50 103 -6 20
-43 37 -45 37 -5 0 18 6 33 15 36 8 4 15 15 15 26 0 11 8 22 20 25 11 3 20 14
20 24 0 36 38 50 120 43 95 -8 110 3 110 79 1 29 7 63 15 77 8 14 14 33 15 43
0 28 -85 112 -144 142 -54 27 -81 56 -123 128 -42 72 -21 106 40 68 18 -11 49
-20 68 -20 19 0 43 -1 54 -3 12 -2 19 2 17 10 -3 17 23 15 38 -3 18 -22 30
-18 30 8 0 20 5 24 31 24 25 0 31 -5 36 -29 5 -25 10 -28 43 -28 23 0 61 12
94 29 61 32 139 38 170 12 11 -9 16 -10 16 -2 0 7 5 9 11 5 7 -4 61 -17 122
-29 107 -22 110 -22 128 -4 32 32 18 102 -28 139 -118 95 -113 89 -115 133
l-1 42 -4 -38 c-4 -31 -8 -38 -21 -34 -15 5 -82 29 -90 33 -1 1 11 50 28 109
16 60 30 110 30 112 0 5 -33 2 -50 -4z m-143 -245 c-3 -8 -6 -5 -6 6 -1 11 2
17 5 13 3 -3 4 -12 1 -19z m-260 -24 c-10 -10 -77 -22 -77 -14 0 8 26 16 64
19 11 0 17 -2 13 -5z m53 -9 c-7 -8 -18 -15 -24 -15 -6 0 -2 7 8 15 25 19 32
19 16 0z m-144 -43 c6 -4 14 -17 18 -29 6 -19 4 -23 -14 -23 -17 0 -53 13 -68
25 -1 1 0 10 4 19 6 16 40 21 60 8z"/>
<path d="M3545 1756 c-8 -10 -18 -16 -23 -12 -5 3 -18 -1 -28 -9 -25 -19 -54
-19 -54 0 0 8 -6 12 -14 9 -8 -3 -28 2 -45 10 -38 20 -95 21 -111 1 -6 -8 -21
-17 -33 -21 -20 -6 -50 -31 -140 -116 -41 -40 -76 -48 -97 -23 -13 16 -40 20
-40 7 0 -5 -13 -7 -30 -4 l-30 4 16 -38 c9 -22 21 -45 28 -53 7 -9 11 -66 11
-165 0 -154 -5 -195 -28 -218 -19 -20 -47 -66 -47 -78 0 -6 25 -10 58 -10 70
0 86 -13 114 -92 22 -63 23 -64 74 -71 36 -4 42 -2 52 22 6 14 21 43 32 63 12
20 23 49 24 65 2 20 9 29 25 31 11 2 21 8 21 14 0 16 56 64 88 77 15 5 46 15
68 21 33 8 44 17 54 43 41 109 95 165 166 172 40 4 96 33 124 64 14 16 66 36
84 33 12 -2 33 -17 48 -33 29 -32 39 -34 69 -19 17 10 19 22 19 115 l0 104
-29 16 c-32 16 -67 59 -72 90 -4 19 -12 20 -173 20 -153 0 -170 -2 -181 -19z"/>
<path d="M1708 945 c2 -14 8 -23 12 -20 10 6 1 45 -10 45 -4 0 -5 -11 -2 -25z"/>
<path d="M1410 946 c0 -9 7 -16 16 -16 9 0 14 5 12 12 -6 18 -28 21 -28 4z"/>
<path d="M3844 920 c-172 -48 -188 -117 -75 -330 14 -27 101 -62 167 -68 l64
-5 0 206 0 206 -32 5 c-44 7 -54 5 -124 -14z"/>
<path d="M2675 880 c-16 -5 -67 -18 -113 -29 -46 -12 -127 -40 -180 -63 -91
-39 -315 -97 -374 -98 -16 0 -42 -13 -61 -30 -19 -16 -44 -30 -55 -30 -25 0
-92 -28 -92 -38 0 -14 23 -32 40 -32 9 0 25 -9 36 -21 10 -11 26 -18 35 -16
24 6 59 -45 59 -85 0 -19 -7 -44 -16 -57 -11 -15 -14 -33 -10 -53 5 -25 1 -35
-25 -59 -17 -16 -36 -29 -43 -29 -19 0 -18 -60 1 -89 9 -14 29 -38 45 -53 31
-29 36 -59 12 -82 -14 -15 -10 -16 45 -16 64 0 65 1 135 65 34 31 36 35 29 81
-3 27 -15 66 -26 86 -23 46 -24 125 -3 167 9 16 16 35 16 42 0 6 42 53 93 103
88 89 133 118 217 144 166 52 250 57 302 20 41 -29 95 -54 139 -63 70 -15 128
-52 234 -151 50 -47 55 -56 61 -105 6 -52 -1 -80 -28 -124 -16 -25 -48 -55
-60 -55 -4 0 -8 -7 -8 -15 0 -8 9 -15 20 -15 14 0 20 -6 18 -17 -2 -13 5 -19
22 -21 14 -2 30 -9 35 -17 6 -7 19 -14 30 -16 12 -3 29 -25 44 -57 l25 -52
223 0 c217 0 223 1 223 20 0 24 29 38 40 20 6 -9 23 -11 59 -7 50 6 101 -6
101 -25 0 -4 18 -8 40 -8 38 0 40 2 40 30 0 25 -4 30 -25 30 -27 0 -75 19 -75
30 0 18 -62 32 -114 26 -63 -8 -83 -1 -138 51 -25 24 -51 38 -82 44 -54 10
-154 74 -186 119 -29 41 -22 65 35 119 49 46 49 55 0 90 -11 8 -44 40 -74 70
l-54 55 -116 1 c-75 1 -123 6 -137 15 -20 12 -64 85 -64 105 0 15 -58 43 -115
55 -27 6 -65 20 -83 31 -35 20 -50 22 -97 9z"/>
<path d="M959 246 c4 -6 21 -40 37 -76 32 -74 103 -154 131 -148 16 3 18 13
16 82 -2 44 -7 84 -13 90 -29 35 -199 87 -171 52z"/>
<path d="M2452 227 c-24 -14 -98 -134 -109 -176 -3 -14 -10 -32 -16 -38 -7
-10 21 -13 136 -13 160 0 171 5 96 48 -48 28 -57 46 -35 71 25 27 29 67 10 96
-18 27 -46 31 -82 12z"/>
<path d="M1587 119 c-19 -11 -22 -54 -7 -93 9 -23 15 -26 63 -26 l54 0 -7 46
c-4 25 -14 52 -23 61 -19 19 -56 25 -80 12z"/>
</g>
</svg>
